# xmcd
#
# Track frame offsets:
#	150
#	19283
#	37777
#	56902
#	72440
#	81426
#	96660
#	108757
#	129016
#	151893
#	166798
#	180110
#	191394
#	211718
#	226219
#	241504
#	263480
#	284852
#	299498
#	310148
#	326301
#
# Disc length: 4777 seconds
# Revision: 0
# Processed by: cddbd v1.5.1PL0 Copyright (c) Steve Scherf et al.
# Submitted via: cdrLabel 7.0
#
DISCID=1312a715
DTITLE=Paul Lamb and The King Snakes - Paul Lamb&The King Snakes/Harmonica Ma
DTITLE=n
DYEAR=2003
DGENRE=
TTITLE0=Harmonica Man
TTITLE1=Pillow
TTITLE2=Should Be Mine
TTITLE3=John Henry Jumps In
TTITLE4=My Baby Left Me
TTITLE5=Jump For It
TTITLE6=Done Quit Drinkin'
TTITLE7=Please Tell Me
TTITLE8=Millenium Blues
TTITLE9=Look Out Pintop
TTITLE10=I'm Bluesman
TTITLE11=No Glue In The World
TTITLE12=Crazy For Me
TTITLE13=Tuesday Blues
TTITLE14=Days Of Jive
TTITLE15=Take Your Time
TTITLE16=Mad About My Baby (Live)
TTITLE17=More Than Alright (Live)
TTITLE18=I'm Goung Down (Live)
TTITLE19=Hootin' And Screamin' (Live)
TTITLE20=Makes You Feel Good (Live)
EXTD=
EXTT0=
EXTT1=
EXTT2=
EXTT3=
EXTT4=
EXTT5=
EXTT6=
EXTT7=
EXTT8=
EXTT9=
EXTT10=
EXTT11=
EXTT12=
EXTT13=
EXTT14=
EXTT15=
EXTT16=
EXTT17=
EXTT18=
EXTT19=
EXTT20=
PLAYORDER=
